<svg xmlns="http://www.w3.org/2000/svg" width="1600" height="420" viewBox="0 0 1600 420">
  <defs>
    <linearGradient id="g" x1="0" y1="0" x2="1" y2="0">
      <stop offset="0" stop-color="#0b1220"/>
      <stop offset="0.6" stop-color="#122449"/>
      <stop offset="1" stop-color="#1b2d2c"/>
    </linearGradient>
    <linearGradient id="road" x1="0" y1="0" x2="0" y2="1">
      <stop offset="0" stop-color="#0f172a"/>
      <stop offset="1" stop-color="#0b1220"/>
    </linearGradient>
  </defs>

  <rect width="1600" height="420" fill="url(#g)"/>

  <!-- subtle grid -->
  <g opacity="0.22" stroke="#21304a" stroke-width="1">
    <path d="M0 90H1600"/>
    <path d="M0 180H1600"/>
    <path d="M0 270H1600"/>
    <path d="M0 360H1600"/>
    <path d="M200 0V420"/>
    <path d="M400 0V420"/>
    <path d="M600 0V420"/>
    <path d="M800 0V420"/>
    <path d="M1000 0V420"/>
    <path d="M1200 0V420"/>
    <path d="M1400 0V420"/>
  </g>

  <!-- road -->
  <path d="M0 420 L620 230 Q800 170 980 230 L1600 420 Z" fill="url(#road)" opacity="0.95"/>
  <path d="M0 420 L650 248 Q800 205 950 248 L1600 420 Z" fill="#0b1220" opacity="0.85"/>

  <!-- lane marks -->
  <g stroke="#f59e0b" stroke-width="6" stroke-linecap="round" opacity="0.9">
    <path d="M800 420 L800 360"/>
    <path d="M800 330 L800 270"/>
    <path d="M800 240 L800 205"/>
  </g>

  <!-- toll booth icon -->
  <g transform="translate(1220,118)" opacity="0.95">
    <rect x="0" y="90" width="260" height="160" rx="18" fill="#111b2e" stroke="#21304a" stroke-width="3"/>
    <rect x="26" y="118" width="90" height="110" rx="12" fill="#0b1220" stroke="#21304a" stroke-width="2"/>
    <rect x="134" y="118" width="100" height="70" rx="12" fill="#0b1220" stroke="#21304a" stroke-width="2"/>
    <path d="M20 90 L130 40 L240 90" fill="#122449" stroke="#21304a" stroke-width="3"/>
    <rect x="146" y="202" width="74" height="26" rx="10" fill="#f59e0b" opacity="0.9"/>
  </g>

  <!-- title placeholders -->
  <g opacity="0.9">
    <circle cx="110" cy="92" r="10" fill="#22c55e"/>
    <circle cx="140" cy="92" r="10" fill="#f59e0b"/>
    <circle cx="170" cy="92" r="10" fill="#60a5fa"/>
  </g>
</svg>
